<svg xmlns="http://www.w3.org/2000/svg" xmlns:xlink="http://www.w3.org/1999/xlink" width="50" zoomAndPan="magnify" viewBox="0 0 37.5 37.499999" height="50" preserveAspectRatio="xMidYMid meet" version="1.0"><path fill="#0d28f2" d="M 22.921875 34.519531 C 22.492188 33.601562 21.832031 33.460938 21.417969 33.234375 C 21.222656 33.128906 21.074219 33.007812 20.976562 32.835938 C 20.882812 32.664062 20.839844 32.441406 20.894531 32.121094 C 20.949219 31.820312 21.203125 31.585938 21.507812 31.335938 C 21.824219 31.074219 22.191406 30.765625 22.101562 30.101562 C 22.058594 29.765625 21.792969 29.601562 21.476562 29.496094 C 20.859375 29.285156 20.054688 29.296875 19.683594 29.175781 C 18.78125 28.882812 18.492188 28.222656 18.488281 27.464844 C 18.484375 27.011719 18.589844 26.519531 18.714844 26.074219 C 18.753906 25.933594 18.898438 25.855469 19.035156 25.894531 C 19.171875 25.933594 19.25 26.074219 19.210938 26.214844 C 19.097656 26.613281 19 27.054688 19.003906 27.460938 C 19.007812 28 19.203125 28.476562 19.84375 28.683594 C 20.214844 28.804688 21.023438 28.796875 21.644531 29.007812 C 22.152344 29.179688 22.542969 29.488281 22.613281 30.03125 C 22.714844 30.796875 22.398438 31.234375 22.035156 31.566406 C 21.878906 31.707031 21.714844 31.824219 21.585938 31.949219 C 21.5 32.027344 21.421875 32.105469 21.40625 32.207031 C 21.375 32.378906 21.378906 32.496094 21.429688 32.585938 C 21.515625 32.738281 21.691406 32.800781 21.894531 32.894531 C 22.367188 33.113281 22.96875 33.398438 23.390625 34.300781 C 23.449219 34.429688 23.394531 34.585938 23.265625 34.644531 C 23.136719 34.707031 22.980469 34.648438 22.921875 34.519531 " fill-opacity="1" fill-rule="evenodd"/><path fill="#00bf63" d="M 20.21875 23.398438 C 20.058594 23.792969 19.238281 24.121094 19.691406 24.695312 C 20.050781 25.152344 20.667969 25.488281 21.121094 25.851562 C 21.1875 25.90625 21.621094 26.191406 21.476562 26.324219 C 21.335938 26.457031 20.894531 26.328125 20.71875 26.34375 C 20.332031 26.371094 19.925781 26.484375 19.566406 26.628906 C 19.351562 26.714844 19.121094 26.921875 18.875 26.851562 C 18.453125 26.726562 18.429688 26.285156 17.886719 26.335938 C 17.628906 26.363281 16.421875 26.917969 16.296875 26.480469 C 16.210938 26.164062 16.777344 25.894531 16.964844 25.769531 C 17.425781 25.453125 17.859375 24.601562 17.53125 24.050781 C 17.25 23.582031 16.328125 23.242188 15.890625 22.960938 C 14.746094 22.230469 13.742188 21.285156 12.648438 20.476562 C 9.3125 18.007812 8.28125 14.050781 8.007812 11.5 C 7.542969 7.136719 12.328125 2.320312 17.3125 2.328125 C 21.4375 2.339844 24.21875 3.820312 25.957031 8.882812 C 27.46875 13.296875 25.21875 18.007812 22.382812 21.445312 C 21.722656 22.242188 21.007812 22.726562 20.21875 23.398438 " fill-opacity="1" fill-rule="evenodd"/><path fill="#8b1a1a" d="M 19.988281 23.972656 C 20 23.929688 19.085938 23.914062 19.027344 23.914062 C 18.535156 23.929688 18 23.9375 17.527344 24.074219 C 17.421875 24.105469 17.097656 24.199219 17.136719 24.367188 C 17.183594 24.5625 17.585938 24.570312 17.730469 24.582031 C 18.328125 24.628906 18.9375 24.613281 19.527344 24.515625 C 19.804688 24.472656 20.339844 24.277344 19.988281 23.972656 " fill-opacity="1" fill-rule="evenodd"/><path fill="#8b1a1a" d="M 19.300781 24.722656 C 19.304688 24.722656 19.402344 24.867188 19.410156 24.875 C 19.480469 24.976562 19.558594 25.074219 19.632812 25.175781 C 19.769531 25.355469 20.414062 25.988281 20.171875 26.234375 C 20.050781 26.359375 19.796875 26.238281 19.714844 26.128906 C 19.570312 25.933594 19.582031 25.226562 19.285156 25.210938 C 18.832031 25.1875 19.042969 26.046875 18.664062 26.105469 C 18.574219 26.117188 18.558594 25.984375 18.542969 25.925781 C 18.503906 25.765625 18.464844 25.53125 18.261719 25.507812 C 18.105469 25.492188 17.941406 25.574219 17.804688 25.636719 C 17.789062 25.640625 17.617188 25.730469 17.609375 25.710938 C 17.578125 25.640625 17.882812 25.28125 17.917969 25.210938 C 17.96875 25.105469 17.980469 24.691406 18.121094 24.660156 C 18.316406 24.617188 18.574219 25.117188 18.746094 25.023438 C 18.941406 24.914062 18.761719 24.117188 19.21875 24.527344 " fill-opacity="1" fill-rule="evenodd"/><path fill="#ffffff" d="M 15.191406 4.636719 C 12.59375 4.769531 9.96875 7.199219 9.441406 9.722656 C 9.21875 10.800781 9.21875 13.5 10.914062 13.488281 C 11.519531 13.480469 11.816406 12.871094 11.90625 12.359375 C 12.132812 11.074219 11.714844 9.777344 12.355469 8.558594 C 13.054688 7.226562 14.367188 6.949219 15.441406 6.058594 C 16.464844 5.210938 15.671875 4.613281 15.191406 4.636719 " fill-opacity="1" fill-rule="evenodd"/><path fill="#ffffff" d="M 16.984375 4.128906 C 17.746094 3.734375 18.464844 3.835938 18.605469 3.84375 C 19.164062 3.875 21.277344 4.207031 20.722656 5.175781 C 20.207031 6.074219 18.53125 6.011719 17.722656 5.664062 C 17.148438 5.414062 16.359375 4.683594 16.984375 4.128906 " fill-opacity="1" fill-rule="evenodd"/></svg>